<?xml version="1.0" encoding="UTF-8" standalone="no"?>
<!-- Created with Inkscape (http://www.inkscape.org/) -->

<svg
   width="512"
   height="1040"
   viewBox="0 0 128 260"
   version="1.1"
   id="svg1"
   xml:space="preserve"
   xmlns="http://www.w3.org/2000/svg"
   xmlns:svg="http://www.w3.org/2000/svg"><defs
     id="defs1"><style
       id="style1-6">.cls-1{fill:#fff;}</style><style
       id="style1-0">.cls-1{fill:none;}.cls-2{clip-path:url(#clippath);}</style><style
       id="style1-68">.cls-1{fill:#fff;}</style></defs><g
     id="layer3"
     transform="matrix(1.9562191,0,0,1.9537169,0,6.5)"
     style="display:inline"><path
       d="M 8.530643,67.927548 C 5.676518,69.622208 0.053333,76.082188 0,77.776318 v 2.80426 c 0,3.55466 3.322658,6.67892 6.339449,6.67892 3.6223904,0 6.640514,-3.00213 6.640781,-6.56532 0,3.56319 2.914658,6.56532 6.537315,6.56532 3.622923,0 6.443982,-3.00213 6.443982,-6.56532 0,3.56319 3.099191,6.56532 6.721847,6.56532 h 0.0656 c 3.622923,0 6.722115,-3.00213 6.722115,-6.56532 0,3.56319 2.821325,6.56532 6.443715,6.56532 3.622656,0 6.537315,-3.00213 6.537315,-6.56532 0,3.56319 3.018658,6.56532 6.640786,6.56532 3.01679,0 6.33944,-3.12373 6.33944,-6.67892 v -2.80426 c -0.0533,-1.69439 -5.67651,-8.15464 -8.53011,-9.84877 -8.870904,-0.31146 -15.020753,-0.36533 -24.186327,-0.364 -9.165308,8e-4 -21.660739,0.144 -24.185799,0.364 z m 17.385017,17.65782 a 7.4733122,7.4733122 0 0 1 -1.274663,1.64133 c -1.367463,1.33706 -3.241857,2.16586 -5.308252,2.16586 a 7.5951785,7.5951785 0 0 1 -5.319451,-2.16693 c -0.495466,-0.48533 -0.871998,-1.00426 -1.216797,-1.60853 l -0.0016,0.001 c -0.344532,0.60533 -0.824531,1.124 -1.321063,1.60986 a 7.5999785,7.5999785 0 0 1 -5.319451,2.1653 c -0.249066,0 -0.508265,-0.0688 -0.717865,-0.1408 -0.291199,3.03252 -0.414132,5.93065 -0.457598,8.04371 l -5.34e-4,0.012 c -0.0053,1.07306 -0.01067,1.95546 -0.016,3.181322 0.056,6.36265 -0.630131,20.62234 2.805326,24.12607 5.323718,1.24133 15.119957,1.80666 24.947929,1.81013 h 0.0016 c 9.827706,-0.003 19.623945,-0.5688 24.947664,-1.81013 3.43546,-3.50399 2.74932,-17.76369 2.80532,-24.12633 -0.006,-1.225602 -0.0107,-2.108002 -0.016,-3.181332 l -8e-4,-0.012 c -0.0432,-2.11359 -0.16613,-5.01145 -0.45733,-8.04398 -0.2096,0.072 -0.46853,0.1408 -0.71786,0.1408 a 7.5999785,7.5999785 0 0 1 -5.319454,-2.16532 c -0.496532,-0.48587 -0.976531,-1.00427 -1.32133,-1.60987 l -0.0016,-10e-4 c -0.345065,0.60427 -0.721331,1.12347 -1.216796,1.60853 a 7.5946452,7.5946452 0 0 1 -5.319185,2.1667 c -2.066128,0 -3.940789,-0.82933 -5.308252,-2.16613 a 7.4733122,7.4733122 0 0 1 -1.274663,-1.64133 7.4639789,7.4639789 0 0 1 -1.26293,1.64133 7.5973119,7.5973119 0 0 1 -5.319985,2.16639 c -0.072,0 -0.143999,-0.003 -0.215999,-0.005 h -0.0019 c -0.072,0.002 -0.143999,0.005 -0.216799,0.005 a 7.5973119,7.5973119 0 0 1 -5.319952,-2.16612 7.4645123,7.4645123 0 0 1 -1.26293,-1.64133 z m -5.462918,7.06398 -5.33e-4,0.003 h 0.004 c 2.16346,0.004 4.085322,0 6.466648,2.59892 1.874128,-0.19653 3.832523,-0.29466 5.792517,-0.29173 h 0.0016 c 1.959995,-0.003 3.918389,0.0952 5.792784,0.29173 2.381327,-2.59919 4.303188,-2.59466 6.466648,-2.59892 h 0.0037 l -5.34e-4,-0.003 c 1.022131,0 5.110919,0 7.959978,8.001842 l 3.060258,10.9773 c 2.267727,8.16638 -0.726131,8.36611 -4.460521,8.37331 -5.538118,-0.20613 -8.604509,-4.22798 -8.604509,-8.24931 -3.065591,0.5024 -6.641848,0.7536 -10.218104,0.75387 h -0.0016 c -3.576524,0 -7.15278,-0.25147 -10.218105,-0.75387 0,4.02133 -3.066658,8.04318 -8.604509,8.24931 -3.734389,-0.007 -6.727981,-0.20666 -4.460254,-8.37331 l 3.061058,-10.97703 c 2.849059,-8.001852 6.937847,-8.001852 7.959978,-8.001852 z m 12.262632,6.28851 v 0.002 c -0.0053,0.005 -5.830117,5.354652 -6.877314,7.257322 l 3.81439,-0.1528 v 3.32639 c 0,0.15573 1.530662,0.0923 3.062924,0.0213 h 0.0016 c 1.531729,0.0709 3.062658,0.1344 3.062658,-0.0213 v -3.32639 l 3.81439,0.1528 c -1.047464,-1.90267 -6.877314,-7.257322 -6.877314,-7.257322 v -0.002 l -8e-4,5.4e-4 z"
       color="#000000"
       fill="#ffffff"
       id="path3"
       style="fill:#fa5c5c;fill-opacity:1;stroke-width:0.266666" /><path
       d="M 8.530643,0.36402369 C 5.676518,2.0586837 0.053333,8.5186637 0,10.212794 v 2.80426 c 0,3.55466 3.322658,6.67892 6.339449,6.67892 3.6223904,0 6.640514,-3.00213 6.640781,-6.56532 0,3.56319 2.914658,6.56532 6.537315,6.56532 3.622923,0 6.443982,-3.00213 6.443982,-6.56532 0,3.56319 3.099191,6.56532 6.721847,6.56532 h 0.0656 c 3.622923,0 6.722115,-3.00213 6.722115,-6.56532 0,3.56319 2.821325,6.56532 6.443715,6.56532 3.622656,0 6.537315,-3.00213 6.537315,-6.56532 0,3.56319 3.018658,6.56532 6.640786,6.56532 3.01679,0 6.33944,-3.12373 6.33944,-6.67892 v -2.80426 C 65.379045,8.5184037 59.755835,2.0581537 56.902235,0.36402369 48.031331,0.05256369 41.881482,-0.00130631 32.715908,2.3691333e-5 23.5506,8.2369133e-4 11.055169,0.14402369 8.530109,0.36402369 Z M 25.91566,18.021844 a 7.4733122,7.4733122 0 0 1 -1.274663,1.64133 c -1.367463,1.33706 -3.241857,2.16586 -5.308252,2.16586 a 7.5951785,7.5951785 0 0 1 -5.319451,-2.16693 c -0.495466,-0.48533 -0.871998,-1.00426 -1.216797,-1.60853 l -0.0016,10e-4 c -0.344532,0.60533 -0.824531,1.124 -1.321063,1.60986 a 7.5999785,7.5999785 0 0 1 -5.319451,2.1653 c -0.249066,0 -0.508265,-0.0688 -0.717865,-0.1408 -0.291199,3.03252 -0.414132,5.93065 -0.457598,8.04371 l -5.34e-4,0.012 c -0.0053,1.07306 -0.01067,1.95546 -0.016,3.18132 0.056,6.36265 -0.630131,20.62234 2.805326,24.126067 5.323718,1.24133 15.119957,1.80666 24.947929,1.81013 h 0.0016 c 9.827706,-0.003 19.623945,-0.5688 24.947664,-1.81013 3.43546,-3.503987 2.74932,-17.763687 2.80532,-24.126327 -0.006,-1.2256 -0.0107,-2.108 -0.016,-3.18133 l -8e-4,-0.012 c -0.0432,-2.11359 -0.16613,-5.01145 -0.45733,-8.04398 -0.2096,0.072 -0.46853,0.1408 -0.71786,0.1408 a 7.5999785,7.5999785 0 0 1 -5.319454,-2.16532 c -0.496532,-0.48587 -0.976531,-1.00427 -1.32133,-1.60987 l -0.0016,-10e-4 c -0.345065,0.60427 -0.721331,1.12347 -1.216796,1.60853 a 7.5946452,7.5946452 0 0 1 -5.319185,2.1667 c -2.066128,0 -3.940789,-0.82933 -5.308252,-2.16613 a 7.4733122,7.4733122 0 0 1 -1.274663,-1.64133 7.4639789,7.4639789 0 0 1 -1.26293,1.64133 7.5973119,7.5973119 0 0 1 -5.319985,2.16639 c -0.072,0 -0.143999,-0.003 -0.215999,-0.005 h -0.0019 c -0.072,0.002 -0.143999,0.005 -0.216799,0.005 a 7.5973119,7.5973119 0 0 1 -5.319952,-2.16612 7.4645123,7.4645123 0 0 1 -1.26293,-1.64133 z m -5.462918,7.06398 -5.33e-4,0.003 h 0.004 c 2.16346,0.004 4.085322,0 6.466648,2.59892 1.874128,-0.19653 3.832523,-0.29466 5.792517,-0.29173 h 0.0016 c 1.959995,-0.003 3.918389,0.0952 5.792784,0.29173 2.381327,-2.59919 4.303188,-2.59466 6.466648,-2.59892 h 0.0037 l -5.34e-4,-0.003 c 1.022131,0 5.110919,0 7.959978,8.00184 l 3.060258,10.9773 c 2.267727,8.16638 -0.726131,8.36611 -4.460521,8.37331 -5.538118,-0.20613 -8.604509,-4.22798 -8.604509,-8.24931 -3.065591,0.5024 -6.641848,0.7536 -10.218104,0.75387 h -0.0016 c -3.576524,0 -7.15278,-0.25147 -10.218105,-0.75387 0,4.02133 -3.066658,8.04318 -8.604509,8.24931 -3.734389,-0.007 -6.727981,-0.20666 -4.460254,-8.37331 l 3.061058,-10.97703 c 2.849059,-8.00185 6.937847,-8.00185 7.959978,-8.00185 z m 12.262632,6.28851 v 0.002 c -0.0053,0.005 -5.830117,5.35465 -6.877314,7.25732 l 3.81439,-0.1528 v 3.32639 c 0,0.15573 1.530662,0.0923 3.062924,0.0213 h 0.0016 c 1.531729,0.0709 3.062658,0.1344 3.062658,-0.0213 v -3.32639 l 3.81439,0.1528 c -1.047464,-1.90267 -6.877314,-7.25732 -6.877314,-7.25732 v -0.002 l -8e-4,5.4e-4 z"
       color="#000000"
       fill="#ffffff"
       id="path1-2"
       style="display:inline;stroke-width:0.266666" /></g><style
     type="text/css"
     id="style1">
	.st0{fill:#FFFFFF;}
</style><style
     type="text/css"
     id="style1-8">
	.st0{fill:#FFFFFF;}
	.st1{fill:#9146FF;}
</style><style
     type="text/css"
     id="style1-4">
	.st0{fill:#FF0000;}
	.st1{fill:#FFFFFF;}
</style><style
     type="text/css"
     id="style1-01">
	.st0{fill:#FFFFFF;}
	.st1{fill:#9146FF;}
</style><style
     type="text/css"
     id="style1-1">
	.st0{fill:#FFFFFF;}
</style></svg>
