<svg xmlns="http://www.w3.org/2000/svg" xmlns:xlink="http://www.w3.org/1999/xlink" viewBox="0,0,256,256" width="48px" height="48px" fill-rule="nonzero"><g fill="#ffffff" fill-rule="nonzero" stroke="none" stroke-width="1" stroke-linecap="butt" stroke-linejoin="miter" stroke-miterlimit="10" stroke-dasharray="" stroke-dashoffset="0" font-family="none" font-weight="none" font-size="none" text-anchor="none" style="mix-blend-mode: normal"><g transform="scale(10.66667,10.66667)"><path d="M5,3c-1.105,0 -2,0.895 -2,2v14c0,1.105 0.895,2 2,2h14c1.105,0 2,-0.895 2,-2v-14c0,-1.105 -0.895,-2 -2,-2zM5,5h14v14h-14v-3.91602l2.02344,0.6543c-0.008,-0.08 -0.02344,-0.15728 -0.02344,-0.23828c0,-0.637 0.24662,-1.21044 0.64063,-1.64844l-2.64062,-0.86523zM14.5,6c-1.933,0 -3.5,1.567 -3.5,3.5c0,0.134 0.02406,0.26258 0.03906,0.39258l-2.2168,3.21094c-0.465,0.131 -0.86864,0.39709 -1.18164,0.74609l2.16406,0.71094c0.401,0.13 0.69727,0.49445 0.69727,0.93945c0,0.552 -0.448,1 -1,1c-0.109,0 -0.21059,-0.0305 -0.30859,-0.0625l-2.16797,-0.70117c0.12,1.268 1.17561,2.26367 2.47461,2.26367c1.367,0 2.47309,-1.09798 2.49609,-2.45898l2.55469,-2.54687c1.909,-0.028 3.44922,-1.57814 3.44922,-3.49414c0,-1.933 -1.567,-3.5 -3.5,-3.5zM14.5,8c0.828,0 1.5,0.672 1.5,1.5c0,0.828 -0.672,1.5 -1.5,1.5c-0.828,0 -1.5,-0.672 -1.5,-1.5c0,-0.828 0.672,-1.5 1.5,-1.5z"></path></g></g></svg>